<mxfile host="Electron" agent="Mozilla/5.0 (X11; Linux x86_64) AppleWebKit/537.36 (KHTML, like Gecko) draw.io/28.1.2 Chrome/138.0.7204.243 Electron/37.4.0 Safari/537.36" version="28.1.2" pages="2">
  <diagram name="Page-1" id="qyKOhX7wKubJx3A1yhwW">
    <mxGraphModel dx="950" dy="575" grid="1" gridSize="10" guides="1" tooltips="1" connect="1" arrows="1" fold="1" page="1" pageScale="1" pageWidth="827" pageHeight="1169" math="1" shadow="0">
      <root>
        <mxCell id="0" />
        <mxCell id="1" parent="0" />
        <mxCell id="rzhAfjj5DbKfYVlqXlJ3-5" value="" style="edgeStyle=orthogonalEdgeStyle;rounded=0;orthogonalLoop=1;jettySize=auto;html=1;" parent="1" source="rzhAfjj5DbKfYVlqXlJ3-2" target="rzhAfjj5DbKfYVlqXlJ3-3" edge="1">
          <mxGeometry relative="1" as="geometry" />
        </mxCell>
        <mxCell id="rzhAfjj5DbKfYVlqXlJ3-3" value="$$\hat{X}$$" style="rounded=1;whiteSpace=wrap;html=1;fontSize=15;fillColor=#f8cecc;strokeColor=#b85450;" parent="1" vertex="1">
          <mxGeometry x="388" y="365" width="70" height="40" as="geometry" />
        </mxCell>
        <mxCell id="rzhAfjj5DbKfYVlqXlJ3-6" value="$$f_{W_e}$$" style="ellipse;whiteSpace=wrap;html=1;" parent="1" vertex="1">
          <mxGeometry x="393" y="115" width="60" height="30" as="geometry" />
        </mxCell>
        <mxCell id="rzhAfjj5DbKfYVlqXlJ3-7" value="$$f_{W_d}$$" style="ellipse;whiteSpace=wrap;html=1;" parent="1" vertex="1">
          <mxGeometry x="393" y="294" width="60" height="30" as="geometry" />
        </mxCell>
        <mxCell id="gshfcQeMo9viiWqzpoU_-7" value="$$\mu$$" style="rounded=1;whiteSpace=wrap;html=1;fontSize=15;" parent="1" vertex="1">
          <mxGeometry x="333" y="170" width="60" height="30" as="geometry" />
        </mxCell>
        <mxCell id="gshfcQeMo9viiWqzpoU_-18" style="edgeStyle=orthogonalEdgeStyle;rounded=0;orthogonalLoop=1;jettySize=auto;html=1;entryX=0.75;entryY=0;entryDx=0;entryDy=0;" parent="1" source="gshfcQeMo9viiWqzpoU_-8" target="rzhAfjj5DbKfYVlqXlJ3-2" edge="1">
          <mxGeometry relative="1" as="geometry" />
        </mxCell>
        <mxCell id="gshfcQeMo9viiWqzpoU_-8" value="$$\sigma^2$$" style="rounded=1;whiteSpace=wrap;html=1;fontSize=15;" parent="1" vertex="1">
          <mxGeometry x="453" y="170" width="60" height="30" as="geometry" />
        </mxCell>
        <mxCell id="gshfcQeMo9viiWqzpoU_-11" value="" style="endArrow=classic;html=1;rounded=0;entryX=0.25;entryY=0;entryDx=0;entryDy=0;" parent="1" source="rzhAfjj5DbKfYVlqXlJ3-6" target="gshfcQeMo9viiWqzpoU_-8" edge="1">
          <mxGeometry width="50" height="50" relative="1" as="geometry">
            <mxPoint x="363" y="264" as="sourcePoint" />
            <mxPoint x="413" y="214" as="targetPoint" />
          </mxGeometry>
        </mxCell>
        <mxCell id="gshfcQeMo9viiWqzpoU_-12" value="" style="endArrow=classic;html=1;rounded=0;" parent="1" source="rzhAfjj5DbKfYVlqXlJ3-6" target="gshfcQeMo9viiWqzpoU_-7" edge="1">
          <mxGeometry width="50" height="50" relative="1" as="geometry">
            <mxPoint x="603" y="174" as="sourcePoint" />
            <mxPoint x="634" y="203" as="targetPoint" />
          </mxGeometry>
        </mxCell>
        <mxCell id="gshfcQeMo9viiWqzpoU_-15" value="" style="edgeStyle=orthogonalEdgeStyle;rounded=0;orthogonalLoop=1;jettySize=auto;html=1;" parent="1" source="gshfcQeMo9viiWqzpoU_-14" target="rzhAfjj5DbKfYVlqXlJ3-2" edge="1">
          <mxGeometry relative="1" as="geometry" />
        </mxCell>
        <mxCell id="gshfcQeMo9viiWqzpoU_-14" value="$$\varepsilon \sim \text{N}$$" style="ellipse;whiteSpace=wrap;html=1;aspect=fixed;fontSize=15;fillColor=#d5e8d4;strokeColor=#82b366;" parent="1" vertex="1">
          <mxGeometry x="253" y="222" width="54" height="54" as="geometry" />
        </mxCell>
        <mxCell id="gshfcQeMo9viiWqzpoU_-17" style="edgeStyle=orthogonalEdgeStyle;rounded=0;orthogonalLoop=1;jettySize=auto;html=1;entryX=0.325;entryY=0.002;entryDx=0;entryDy=0;entryPerimeter=0;" parent="1" source="gshfcQeMo9viiWqzpoU_-7" target="rzhAfjj5DbKfYVlqXlJ3-2" edge="1">
          <mxGeometry relative="1" as="geometry" />
        </mxCell>
        <mxCell id="gshfcQeMo9viiWqzpoU_-25" value="" style="shape=table;startSize=0;container=1;collapsible=0;childLayout=tableLayout;fontSize=11;fillColor=none;strokeColor=default;perimeterSpacing=0;strokeWidth=0.5;opacity=80;" parent="1" vertex="1">
          <mxGeometry x="12.5" y="79" width="140" height="36" as="geometry" />
        </mxCell>
        <mxCell id="gshfcQeMo9viiWqzpoU_-28" value="" style="shape=tableRow;horizontal=0;startSize=0;swimlaneHead=0;swimlaneBody=0;strokeColor=inherit;top=0;left=0;bottom=0;right=0;collapsible=0;dropTarget=0;fillColor=none;points=[[0,0.5],[1,0.5]];portConstraint=eastwest;fontSize=16;" parent="gshfcQeMo9viiWqzpoU_-25" vertex="1">
          <mxGeometry width="140" height="18" as="geometry" />
        </mxCell>
        <mxCell id="gshfcQeMo9viiWqzpoU_-29" value="\(p\): # covariates" style="shape=partialRectangle;html=1;whiteSpace=wrap;connectable=0;strokeColor=inherit;overflow=hidden;fillColor=none;top=0;left=0;bottom=0;right=0;pointerEvents=1;fontSize=12;align=left;spacingLeft=5;" parent="gshfcQeMo9viiWqzpoU_-28" vertex="1">
          <mxGeometry width="140" height="18" as="geometry">
            <mxRectangle width="140" height="18" as="alternateBounds" />
          </mxGeometry>
        </mxCell>
        <mxCell id="gshfcQeMo9viiWqzpoU_-32" style="shape=tableRow;horizontal=0;startSize=0;swimlaneHead=0;swimlaneBody=0;strokeColor=inherit;top=0;left=0;bottom=0;right=0;collapsible=0;dropTarget=0;fillColor=none;points=[[0,0.5],[1,0.5]];portConstraint=eastwest;fontSize=16;" parent="gshfcQeMo9viiWqzpoU_-25" vertex="1">
          <mxGeometry y="18" width="140" height="18" as="geometry" />
        </mxCell>
        <mxCell id="gshfcQeMo9viiWqzpoU_-33" value="\(k\): VAE latent dimension" style="shape=partialRectangle;html=1;whiteSpace=wrap;connectable=0;strokeColor=inherit;overflow=hidden;fillColor=none;top=0;left=0;bottom=0;right=0;pointerEvents=1;fontSize=12;align=left;spacingLeft=5;" parent="gshfcQeMo9viiWqzpoU_-32" vertex="1">
          <mxGeometry width="140" height="18" as="geometry">
            <mxRectangle width="140" height="18" as="alternateBounds" />
          </mxGeometry>
        </mxCell>
        <mxCell id="gshfcQeMo9viiWqzpoU_-34" value="Notation" style="text;html=1;align=center;verticalAlign=middle;whiteSpace=wrap;rounded=0;fillColor=#ffe6cc;strokeColor=#d79b00;" parent="1" vertex="1">
          <mxGeometry x="12.5" y="49" width="140" height="30" as="geometry" />
        </mxCell>
        <mxCell id="gshfcQeMo9viiWqzpoU_-36" value="$$(\dots \times&amp;nbsp;p)$$" style="text;html=1;align=center;verticalAlign=middle;whiteSpace=wrap;rounded=0;fillColor=none;strokeColor=#b85450;gradientColor=none;fillStyle=auto;shadow=0;fontSize=10;" parent="1" vertex="1">
          <mxGeometry x="458" y="48.25" width="80" height="25.5" as="geometry" />
        </mxCell>
        <mxCell id="SKo15fLE6GQcyllnIHAm-4" value="" style="edgeStyle=orthogonalEdgeStyle;rounded=0;orthogonalLoop=1;jettySize=auto;html=1;entryX=0.5;entryY=0;entryDx=0;entryDy=0;" parent="1" source="gshfcQeMo9viiWqzpoU_-37" target="rzhAfjj5DbKfYVlqXlJ3-6" edge="1">
          <mxGeometry relative="1" as="geometry" />
        </mxCell>
        <mxCell id="gshfcQeMo9viiWqzpoU_-37" value="$$X$$" style="rounded=1;whiteSpace=wrap;html=1;fontSize=15;fillColor=#dae8fc;strokeColor=#6c8ebf;" parent="1" vertex="1">
          <mxGeometry x="388" y="41" width="70" height="40" as="geometry" />
        </mxCell>
        <mxCell id="gshfcQeMo9viiWqzpoU_-38" value="$$(\dots \times&amp;nbsp;p)$$" style="text;html=1;align=center;verticalAlign=middle;whiteSpace=wrap;rounded=0;fillColor=none;strokeColor=#b85450;gradientColor=none;fillStyle=auto;shadow=0;fontSize=10;" parent="1" vertex="1">
          <mxGeometry x="458" y="372.25" width="80" height="25.5" as="geometry" />
        </mxCell>
        <mxCell id="kir_VGYGd0OHTudOm7uo-12" value="" style="swimlane;startSize=0;dashed=1;strokeColor=light-dark(#e5a50a, #ededed);container=0;" parent="1" vertex="1">
          <mxGeometry x="213" y="91" width="480" height="250" as="geometry" />
        </mxCell>
        <mxCell id="kir_VGYGd0OHTudOm7uo-13" value="&lt;b&gt;Variational Autoencoder&lt;/b&gt;" style="text;html=1;align=center;verticalAlign=middle;whiteSpace=wrap;rounded=0;" parent="kir_VGYGd0OHTudOm7uo-12" vertex="1">
          <mxGeometry x="405" y="10" width="60" height="30" as="geometry" />
        </mxCell>
        <mxCell id="SKo15fLE6GQcyllnIHAm-24" value="Inputs" style="rounded=0;whiteSpace=wrap;html=1;fillColor=#dae8fc;strokeColor=#6c8ebf;" parent="1" vertex="1">
          <mxGeometry x="13.5" y="117" width="137.5" height="20" as="geometry" />
        </mxCell>
        <mxCell id="SKo15fLE6GQcyllnIHAm-26" value="&lt;div&gt;Outputs&lt;/div&gt;" style="rounded=0;whiteSpace=wrap;html=1;fillColor=#f8cecc;strokeColor=#b85450;" parent="1" vertex="1">
          <mxGeometry x="13.5" y="138" width="137.5" height="20" as="geometry" />
        </mxCell>
        <mxCell id="SKo15fLE6GQcyllnIHAm-27" value="Stochastic" style="rounded=0;whiteSpace=wrap;html=1;fillColor=#d5e8d4;strokeColor=#82b366;" parent="1" vertex="1">
          <mxGeometry x="13.5" y="159" width="137.5" height="20" as="geometry" />
        </mxCell>
        <mxCell id="kir_VGYGd0OHTudOm7uo-58" value="Feed-forward NN" style="text;html=1;align=center;verticalAlign=middle;whiteSpace=wrap;rounded=0;" parent="1" vertex="1">
          <mxGeometry x="459" y="114" width="75" height="30" as="geometry" />
        </mxCell>
        <mxCell id="kir_VGYGd0OHTudOm7uo-60" value="Feed-forward NN" style="text;html=1;align=center;verticalAlign=middle;whiteSpace=wrap;rounded=0;" parent="1" vertex="1">
          <mxGeometry x="456" y="296" width="75" height="30" as="geometry" />
        </mxCell>
        <mxCell id="rzhAfjj5DbKfYVlqXlJ3-2" value="$$Z = \mu + \varepsilon \sigma$$" style="rounded=1;whiteSpace=wrap;html=1;" parent="1" vertex="1">
          <mxGeometry x="383" y="234" width="80" height="30" as="geometry" />
        </mxCell>
        <mxCell id="gshfcQeMo9viiWqzpoU_-19" value="$$(\dots \times k)$$" style="text;html=1;align=center;verticalAlign=middle;whiteSpace=wrap;rounded=0;fillColor=none;strokeColor=#b85450;gradientColor=none;fillStyle=auto;shadow=0;fontSize=10;" parent="1" vertex="1">
          <mxGeometry x="463" y="237.75" width="80" height="22.5" as="geometry" />
        </mxCell>
      </root>
    </mxGraphModel>
  </diagram>
  <diagram id="ePtbMaemszxgn41MYKDM" name="Page-2">
    <mxGraphModel grid="1" page="1" gridSize="10" guides="1" tooltips="1" connect="1" arrows="1" fold="1" pageScale="1" pageWidth="827" pageHeight="1169" math="0" shadow="0">
      <root>
        <mxCell id="0" />
        <mxCell id="1" parent="0" />
      </root>
    </mxGraphModel>
  </diagram>
</mxfile>
